<svg width="16" height="16" viewBox="0 0 16 16" fill="none" xmlns="http://www.w3.org/2000/svg">
<g clip-path="url(#clip0_79_141)">
<mask id="mask0_79_141" style="mask-type:luminance" maskUnits="userSpaceOnUse" x="0" y="0" width="16" height="16">
<path d="M16 0H0V16H16V0Z" fill="white"/>
</mask>
<g mask="url(#mask0_79_141)">
<path fill-rule="evenodd" clip-rule="evenodd" d="M9.60002 5.46C9.58002 6.28 9.27002 7.01 8.78002 7.59C9.24002 7.83 9.75002 7.98 10.3 8C12.23 8.05 13.84 6.52 13.89 4.59C13.94 2.66 12.41 1.05 10.48 1C9.37002 0.970004 8.37002 1.48 7.71002 2.28C8.86002 2.88 9.63002 4.08 9.60002 5.46ZM8.51001 5.52C8.51001 7.453 6.94301 9.02 5.01001 9.02C3.07701 9.02 1.51001 7.453 1.51001 5.52C1.51001 3.58701 3.07701 2.02 5.01001 2.02C6.94301 2.02 8.51001 3.58701 8.51001 5.52ZM0 15C0 12.19 2.24 9.9 5 9.9C7.76 9.9 10 12.18 10 15V16.02H0V15ZM7.58002 9.47001C8.55002 9.02 9.70002 8.9 10.48 8.9C13.53 8.9 16 11.2 16 14.02V15.02H11V14.02C11.06 12.15 9.38002 10.46 7.58002 9.47001Z" fill="black"/>
</g>
</g>
<defs>
<clipPath id="clip0_79_141">
<rect width="16" height="16" fill="white"/>
</clipPath>
</defs>
</svg>
