<svg width="16" height="16" viewBox="0 0 16 16" fill="none" xmlns="http://www.w3.org/2000/svg">
<g clip-path="url(#clip0_79_192)">
<mask id="mask0_79_192" style="mask-type:luminance" maskUnits="userSpaceOnUse" x="0" y="0" width="16" height="16">
<path d="M16 0H0V16H16V0Z" fill="white"/>
</mask>
<g mask="url(#mask0_79_192)">
<path d="M13.4633 0.831179L13.4811 0.915154L13.5626 0.942303C13.8746 1.0463 14.1568 1.20657 14.3909 1.41261L14.4551 1.46905L14.5363 1.44267L15.1905 1.23028L15.8096 2.30955L15.2997 2.76851L15.237 2.82485L15.2526 2.90764C15.2813 3.06092 15.3 3.22143 15.3 3.38C15.3 3.53857 15.2813 3.69908 15.2526 3.85236L15.2372 3.93426L15.2986 3.99057L15.8102 4.45947L15.1905 5.53972L14.5363 5.32733L14.459 5.30223L14.3957 5.35331C14.1453 5.55559 13.8709 5.72491 13.5626 5.8277L13.4814 5.85476L13.4634 5.93844L13.3188 6.61H12.0812L11.9366 5.93844L11.9186 5.85476L11.8374 5.8277C11.5254 5.7237 11.2432 5.56343 11.0091 5.35739L10.9449 5.30094L10.8637 5.32733L10.2095 5.53972L9.58985 4.45947L10.1014 3.99057L10.1628 3.93427L10.1474 3.85238C10.1187 3.69908 10.1 3.53857 10.1 3.38C10.1 3.22143 10.1187 3.06092 10.1474 2.90762L10.1629 2.82484L10.1003 2.76851L9.59011 2.30928L10.2099 1.22041L10.8637 1.43267L10.941 1.45777L11.0043 1.40669C11.2547 1.20441 11.5291 1.03509 11.8374 0.932303L11.9186 0.905235L11.9366 0.821556L12.0812 0.15H13.3185L13.4633 0.831179ZM5.86534 4.04796L5.94531 4.06129L6.00027 4.00169L6.74892 3.1899L8.48065 4.18966L8.14698 5.24477L8.12164 5.3249L8.17675 5.38835C8.49384 5.75349 8.74474 6.18712 8.91887 6.67081L8.94702 6.749L9.02824 6.7666L10.11 7.00098V8.99902L9.02824 9.2334L8.9453 9.25137L8.91798 9.33171C8.75417 9.81353 8.50387 10.2465 8.18675 10.6116L8.13164 10.6751L8.15698 10.7552L8.49057 11.8101L6.74911 12.8103L6.00027 11.9983L5.94531 11.9387L5.86534 11.952C5.63022 11.9912 5.37898 12.02 5.13 12.02C4.88102 12.02 4.62978 11.9912 4.39466 11.952L4.31469 11.9387L4.25973 11.9983L3.51089 12.8103L1.76943 11.8101L2.10302 10.7552L2.12753 10.6777L2.07596 10.6149C1.76531 10.2362 1.50501 9.80152 1.34171 9.33083L1.3141 9.25124L1.23176 9.2334L0.15 8.99902V7.00098L1.23176 6.7666L1.3147 6.74863L1.34202 6.66829C1.50583 6.18647 1.75614 5.75352 2.07326 5.38835L2.12836 5.3249L2.10302 5.24477L1.76943 4.18992L3.51089 3.1897L4.25973 4.00169L4.31469 4.06129L4.39466 4.04796C4.62978 4.00877 4.88102 3.98 5.13 3.98C5.37898 3.98 5.63022 4.00877 5.86534 4.04796ZM13.4634 10.0516L13.4814 10.1352L13.5626 10.1623C13.8746 10.2663 14.1568 10.4266 14.3909 10.6326L14.4551 10.6891L14.5363 10.6627L15.1905 10.4503L15.8102 11.5305L15.2986 11.9994L15.2372 12.0557L15.2526 12.1376C15.2813 12.2909 15.3 12.4514 15.3 12.61C15.3 12.7686 15.2813 12.9291 15.2526 13.0824L15.2372 13.1643L15.2986 13.2206L15.8105 13.6897L15.1901 14.7796L14.5363 14.5673L14.459 14.5422L14.3957 14.5933C14.1453 14.7956 13.8709 14.9649 13.5626 15.0677L13.4814 15.0948L13.4634 15.1784L13.3188 15.85H12.0812L11.9366 15.1784L11.9186 15.0948L11.8374 15.0677C11.5254 14.9637 11.2432 14.8034 11.0091 14.5974L10.9449 14.5409L10.8637 14.5673L10.2095 14.7797L9.58985 13.6995L10.1014 13.2306L10.1628 13.1743L10.1474 13.0924C10.1187 12.9391 10.1 12.7786 10.1 12.62C10.1 12.4614 10.1187 12.3009 10.1474 12.1476L10.1628 12.0657L10.1014 12.0094L9.58955 11.5403L10.2099 10.4504L10.8637 10.6627L10.941 10.6878L11.0043 10.6367C11.2547 10.4344 11.5291 10.2651 11.8374 10.1623L11.9186 10.1352L11.9366 10.0516L12.0812 9.38H13.3188L13.4634 10.0516ZM11.28 3.38C11.28 4.16284 11.9172 4.8 12.7 4.8C13.4821 4.8 14.12 4.17361 14.12 3.38C14.12 2.59716 13.4828 1.96 12.7 1.96C11.9172 1.96 11.28 2.59716 11.28 3.38ZM3.06 8C3.06 9.14233 3.97665 10.07 5.13 10.07C6.27284 10.07 7.2 9.14284 7.2 8C7.2 6.86767 6.27335 5.93 5.13 5.93C3.98716 5.93 3.06 6.85716 3.06 8ZM11.28 12.61C11.28 13.3928 11.9172 14.03 12.7 14.03C13.4821 14.03 14.12 13.4036 14.12 12.61C14.12 11.8272 13.4828 11.19 12.7 11.19C11.9172 11.19 11.28 11.8272 11.28 12.61Z" fill="white" stroke="black" stroke-width="0.3"/>
</g>
</g>
<defs>
<clipPath id="clip0_79_192">
<rect width="16" height="16" fill="white"/>
</clipPath>
</defs>
</svg>
