<svg width="16" height="16" viewBox="0 0 16 16" fill="none" xmlns="http://www.w3.org/2000/svg">
<path fill-rule="evenodd" clip-rule="evenodd" d="M12.1862 3.31277C13.1237 4.31621 13.1762 4.79906 13.2137 5.90058C13.2137 5.90813 13.2212 5.97603 13.2212 5.97603C13.2212 7.03982 13.0037 8.23942 11.4437 9.03161L11.1137 9.17496C11.0974 9.18187 11.0813 9.18876 11.0652 9.19563C9.95599 9.66832 9.09616 10.0348 9.09616 11.0536H7.59616C7.59616 9.01932 9.35697 8.28113 10.4592 7.81905C10.4852 7.80813 10.5109 7.79736 10.5362 7.78674L10.8062 7.67357C11.4962 7.32652 11.7212 6.92665 11.7212 5.98357C11.6912 5.03415 11.5565 4.88996 10.9734 4.26576L10.9712 4.26339C10.5962 3.88616 9.59866 3.50893 8.53366 3.50893C8.51996 3.50893 8.5019 3.50868 8.47988 3.50838C7.97132 3.50142 5.34616 3.4655 5.34616 5.77232H3.84616C3.84616 3.03362 6.27616 2 8.53366 2C9.70366 2 11.2787 2.34705 12.1862 3.31277ZM9.09616 13.317C9.09616 13.7336 8.76037 14.0714 8.34616 14.0714C7.93195 14.0714 7.59616 13.7336 7.59616 13.317C7.59616 12.9003 7.93195 12.5625 8.34616 12.5625C8.76037 12.5625 9.09616 12.9003 9.09616 13.317Z" fill="white"/>
<path d="M13.2137 5.90058L13.5639 5.90058L13.5635 5.88867L13.2137 5.90058ZM12.1862 3.31277L12.4419 3.07383L12.4412 3.07309L12.1862 3.31277ZM13.2212 5.97603H13.5712V5.95676L13.569 5.9376L13.2212 5.97603ZM11.4437 9.03161L11.5831 9.35263L11.5928 9.34844L11.6021 9.34368L11.4437 9.03161ZM11.1137 9.17496L11.2509 9.49692L11.2531 9.49598L11.1137 9.17496ZM11.0652 9.19563L10.9279 8.87365L10.9279 8.87365L11.0652 9.19563ZM9.09616 11.0536V11.4036H9.44616V11.0536H9.09616ZM7.59616 11.0536H7.24616V11.4036H7.59616V11.0536ZM10.4592 7.81905L10.5945 8.14183L10.5945 8.14183L10.4592 7.81905ZM10.5362 7.78674L10.4009 7.46395L10.4006 7.46408L10.5362 7.78674ZM10.8062 7.67357L10.9415 7.99636L10.9526 7.99169L10.9634 7.98625L10.8062 7.67357ZM11.7212 5.98357L12.0713 5.98357L12.071 5.97253L11.7212 5.98357ZM10.9734 4.26576L10.7176 4.50468L10.7176 4.50469L10.9734 4.26576ZM10.9712 4.26339L11.2271 4.02436L11.2194 4.01664L10.9712 4.26339ZM8.47988 3.50838L8.47509 3.85835L8.47509 3.85835L8.47988 3.50838ZM5.34616 5.77232V6.12232H5.69616V5.77232H5.34616ZM3.84616 5.77232H3.49616V6.12232H3.84616V5.77232ZM13.5635 5.88867C13.5449 5.34397 13.523 4.89554 13.3676 4.45377C13.2097 4.00495 12.926 3.59198 12.4419 3.07383L11.9304 3.55171C12.3838 4.03699 12.5951 4.36717 12.7072 4.68602C12.8219 5.01192 12.8449 5.35568 12.8639 5.91249L13.5635 5.88867ZM13.2212 5.97603C13.569 5.9376 13.569 5.93761 13.569 5.93761C13.569 5.93761 13.569 5.93761 13.569 5.93761C13.569 5.93761 13.569 5.93761 13.569 5.93761C13.569 5.93761 13.569 5.9376 13.569 5.93759C13.569 5.93757 13.569 5.93753 13.569 5.93748C13.569 5.93737 13.569 5.9372 13.569 5.93698C13.5689 5.93653 13.5689 5.93585 13.5688 5.93497C13.5686 5.93321 13.5683 5.93066 13.5679 5.92757C13.5673 5.92134 13.5664 5.91309 13.5655 5.90471C13.5646 5.89614 13.5638 5.88828 13.5633 5.88256C13.5631 5.8812 13.563 5.88013 13.563 5.87931C13.5629 5.87846 13.5629 5.87814 13.5629 5.87824C13.5629 5.87831 13.5629 5.87861 13.5629 5.8791C13.563 5.87957 13.563 5.88044 13.5631 5.88162C13.5631 5.88199 13.5637 5.89 13.5637 5.90058H12.8637C12.8637 5.91211 12.8642 5.92152 12.8644 5.92372C12.8646 5.92769 12.8649 5.93122 12.8651 5.93373C12.8655 5.93884 12.866 5.94408 12.8664 5.94854C12.8673 5.95768 12.8683 5.96821 12.8693 5.97756C12.8703 5.9871 12.8713 5.99629 12.872 6.00303C12.8724 6.00642 12.8727 6.00924 12.8729 6.01122C12.873 6.01221 12.8731 6.013 12.8732 6.01355C12.8732 6.01382 12.8732 6.01404 12.8732 6.01419C12.8733 6.01426 12.8733 6.01432 12.8733 6.01437C12.8733 6.01439 12.8733 6.01441 12.8733 6.01442C12.8733 6.01443 12.8733 6.01443 12.8733 6.01444C12.8733 6.01444 12.8733 6.01444 12.8733 6.01445C12.8733 6.01445 12.8733 6.01445 13.2212 5.97603ZM11.6021 9.34368C12.4453 8.91551 12.9489 8.363 13.2343 7.75425C13.5156 7.15418 13.5712 6.52825 13.5712 5.97603H12.8712C12.8712 6.4876 12.8179 6.99336 12.6005 7.45709C12.3872 7.91213 12.002 8.35552 11.2852 8.71954L11.6021 9.34368ZM11.2531 9.49598L11.5831 9.35263L11.3042 8.71059L10.9742 8.85394L11.2531 9.49598ZM11.2024 9.51761C11.2185 9.51074 11.2347 9.50384 11.2509 9.49691L10.9764 8.853C10.9602 8.8599 10.9441 8.86678 10.9279 8.87365L11.2024 9.51761ZM9.44616 11.0536C9.44616 10.6689 9.59722 10.4181 9.88106 10.1949C10.1904 9.9517 10.6337 9.75998 11.2024 9.51761L10.9279 8.87365C10.3875 9.10397 9.84625 9.33182 9.44838 9.64468C9.02502 9.97758 8.74616 10.4195 8.74616 11.0536H9.44616ZM7.59616 11.4036H9.09616V10.7036H7.59616V11.4036ZM10.3238 7.49626C9.77945 7.7245 9.01243 8.04326 8.38625 8.58127C7.74523 9.13203 7.24616 9.91691 7.24616 11.0536H7.94616C7.94616 10.156 8.3275 9.55464 8.84243 9.11221C9.3722 8.65704 10.0367 8.37568 10.5945 8.14183L10.3238 7.49626ZM10.4006 7.46408C10.3754 7.47463 10.3499 7.48534 10.3238 7.49626L10.5945 8.14183C10.6205 8.13092 10.6463 8.1201 10.6718 8.1094L10.4006 7.46408ZM10.6709 7.35078L10.4009 7.46395L10.6715 8.10953L10.9415 7.99636L10.6709 7.35078ZM11.3712 5.98357C11.3712 6.43489 11.3157 6.70018 11.2152 6.88448C11.1196 7.05955 10.9596 7.2046 10.6489 7.3609L10.9634 7.98625C11.3427 7.79549 11.6402 7.56708 11.8297 7.21969C12.0141 6.88152 12.0712 6.47534 12.0712 5.98357H11.3712ZM10.7176 4.50469C11.0215 4.82995 11.1564 4.97959 11.2384 5.1526C11.3158 5.31595 11.3566 5.52715 11.3713 5.99461L12.071 5.97253C12.0558 5.49057 12.0142 5.15497 11.871 4.85281C11.7324 4.56033 11.5084 4.32577 11.2291 4.02683L10.7176 4.50469ZM10.7154 4.50231L10.7176 4.50468L11.2291 4.02684L11.2269 4.02447L10.7154 4.50231ZM8.53366 3.85893C9.02663 3.85893 9.50533 3.94655 9.90164 4.07712C10.3072 4.21074 10.591 4.37743 10.7229 4.51014L11.2194 4.01664C10.9763 3.77212 10.5739 3.56159 10.1207 3.41228C9.65824 3.25992 9.10569 3.15893 8.53366 3.15893V3.85893ZM8.47509 3.85835C8.49612 3.85864 8.517 3.85893 8.53366 3.85893V3.15893C8.52292 3.15893 8.50768 3.15873 8.48466 3.15841L8.47509 3.85835ZM5.69616 5.77232C5.69616 5.26688 5.83811 4.91504 6.03871 4.66165C6.24312 4.40345 6.528 4.22314 6.8486 4.09911C7.49901 3.84747 8.22093 3.85487 8.47509 3.85835L8.48466 3.15841C8.23026 3.15493 7.38532 3.14089 6.59602 3.44626C6.19676 3.60073 5.79357 3.84354 5.48987 4.22717C5.18235 4.61562 4.99616 5.12435 4.99616 5.77232H5.69616ZM3.84616 6.12232H5.34616V5.42232H3.84616V6.12232ZM8.53366 1.65C7.35932 1.65 6.11228 1.91763 5.14749 2.56908C4.16636 3.23157 3.49616 4.28084 3.49616 5.77232H4.19616C4.19616 4.52509 4.74096 3.68821 5.53921 3.14921C6.35379 2.59918 7.4505 2.35 8.53366 2.35V1.65ZM12.4412 3.07309C11.4366 2.00405 9.74314 1.65 8.53366 1.65V2.35C9.66418 2.35 11.1207 2.69006 11.9311 3.55245L12.4412 3.07309ZM8.34616 14.4214C8.95563 14.4214 9.44616 13.925 9.44616 13.317H8.74616C8.74616 13.5423 8.56512 13.7214 8.34616 13.7214V14.4214ZM7.24616 13.317C7.24616 13.925 7.73669 14.4214 8.34616 14.4214V13.7214C8.1272 13.7214 7.94616 13.5423 7.94616 13.317H7.24616ZM8.34616 12.2125C7.73669 12.2125 7.24616 12.7089 7.24616 13.317H7.94616C7.94616 13.0916 8.1272 12.9125 8.34616 12.9125V12.2125ZM9.44616 13.317C9.44616 12.7089 8.95563 12.2125 8.34616 12.2125V12.9125C8.56512 12.9125 8.74616 13.0916 8.74616 13.317H9.44616Z" fill="black"/>
</svg>
